<svg width="24" height="24" viewBox="0 0 24 24" fill="none" xmlns="http://www.w3.org/2000/svg">
<path d="M20.6857 4.29852H20.2057L16.1502 0.242973C15.8262 -0.080991 15.2983 -0.080991 14.9623 0.242973C14.6384 0.566937 14.6384 1.09488 14.9623 1.43084L17.83 4.29852H6.16731L9.03499 1.43084C9.35895 1.10688 9.35895 0.578935 9.03499 0.242973C8.71103 -0.080991 8.18309 -0.080991 7.84712 0.242973L3.80358 4.29852H3.32363C2.24375 4.29852 0 4.29852 0 7.37018C0 8.53405 0.239973 9.30196 0.743917 9.80591C1.03188 10.1059 1.37985 10.2619 1.7518 10.3458C2.09977 10.4298 2.47172 10.4418 2.83168 10.4418H21.1656C21.5376 10.4418 21.8856 10.4178 22.2215 10.3458C23.2294 10.1059 23.9973 9.38595 23.9973 7.37018C23.9973 4.29852 21.7536 4.29852 20.6857 4.29852Z" fill="white"/>
<path d="M20.4577 12.0015H3.44359C2.69968 12.0015 2.13574 12.6614 2.25573 13.3934L3.26361 19.5607C3.59957 21.6244 4.49947 24.0002 8.49503 24.0002H15.2263C19.2698 24.0002 19.9897 21.9724 20.4217 19.7046L21.6336 13.4293C21.7775 12.6854 21.2136 12.0015 20.4577 12.0015ZM10.3308 19.7406C10.3308 20.2086 9.95887 20.5805 9.50292 20.5805C9.03497 20.5805 8.66301 20.2086 8.66301 19.7406V15.7811C8.66301 15.3251 9.03497 14.9412 9.50292 14.9412C9.95887 14.9412 10.3308 15.3251 10.3308 15.7811V19.7406ZM15.4663 19.7406C15.4663 20.2086 15.0943 20.5805 14.6263 20.5805C14.1704 20.5805 13.7864 20.2086 13.7864 19.7406V15.7811C13.7864 15.3251 14.1704 14.9412 14.6263 14.9412C15.0943 14.9412 15.4663 15.3251 15.4663 15.7811V19.7406Z" fill="white"/>
</svg>
