<svg width="19" height="19" viewBox="0 0 19 19" fill="none" xmlns="http://www.w3.org/2000/svg">
<path d="M9.5 19C4.25954 19 0 14.7405 0 9.5C0 4.25954 4.25954 0 9.5 0C14.7405 0 19 4.25954 19 9.5C19 14.7405 14.7405 19 9.5 19ZM9.5 1.32558C4.99302 1.32558 1.32558 4.99302 1.32558 9.5C1.32558 14.007 4.99302 17.6744 9.5 17.6744C14.007 17.6744 17.6744 14.007 17.6744 9.5C17.6744 4.99302 14.007 1.32558 9.5 1.32558Z" fill="#D8D8D8"/>
<path d="M8.24513 12.6636C8.06838 12.6636 7.90047 12.5929 7.77675 12.4692L5.27582 9.96827C5.01954 9.71199 5.01954 9.28781 5.27582 9.03153C5.5321 8.77525 5.95629 8.77525 6.21257 9.03153L8.24513 11.0641L12.7874 6.52176C13.0437 6.26548 13.4679 6.26548 13.7242 6.52176C13.9805 6.77804 13.9805 7.20223 13.7242 7.45851L8.7135 12.4692C8.58978 12.5929 8.42187 12.6636 8.24513 12.6636Z" fill="#D8D8D8"/>
</svg>
