<svg width="19" height="19" viewBox="0 0 19 19" fill="none" xmlns="http://www.w3.org/2000/svg">
<path d="M6.74359 9.25014C6.71683 9.25014 6.69899 9.25014 6.67223 9.25014C6.62763 9.24122 6.56519 9.24122 6.51167 9.25014C3.92484 9.16986 1.97134 7.13607 1.97134 4.62953C1.97134 2.07838 4.04972 0 6.60087 0C9.15201 0 11.2304 2.07838 11.2304 4.62953C11.2215 7.13607 9.25905 9.16986 6.77035 9.25014C6.76143 9.25014 6.75251 9.25014 6.74359 9.25014ZM6.60087 1.33801C4.79009 1.33801 3.30935 2.81875 3.30935 4.62953C3.30935 6.41355 4.70089 7.84968 6.47599 7.91212C6.52951 7.9032 6.64547 7.9032 6.76143 7.91212C8.50977 7.83184 9.88346 6.39571 9.89238 4.62953C9.89238 2.81875 8.41165 1.33801 6.60087 1.33801Z" fill="white"/>
<path d="M13.3266 9.3661C13.2999 9.3661 13.2731 9.3661 13.2463 9.35718C12.8806 9.39286 12.506 9.13418 12.4703 8.76845C12.4346 8.40273 12.6576 8.07269 13.0233 8.02808C13.1304 8.01916 13.2463 8.01916 13.3445 8.01916C14.6468 7.9478 15.6637 6.87739 15.6637 5.56614C15.6637 4.21028 14.5665 3.11311 13.2107 3.11311C12.8449 3.12203 12.5416 2.81875 12.5416 2.45303C12.5416 2.0873 12.8449 1.78402 13.2107 1.78402C15.298 1.78402 17.0017 3.48776 17.0017 5.57506C17.0017 7.62668 15.3961 9.28582 13.3534 9.3661C13.3445 9.3661 13.3355 9.3661 13.3266 9.3661Z" fill="white"/>
<path d="M6.75251 18.9998C5.00417 18.9998 3.24691 18.5538 1.91782 17.6618C0.677927 16.8411 0 15.7172 0 14.4952C0 13.2731 0.677927 12.1402 1.91782 11.3107C4.59385 9.53558 8.92901 9.53558 11.5872 11.3107C12.8182 12.1313 13.505 13.2553 13.505 14.4773C13.505 15.6994 12.8271 16.8322 11.5872 17.6618C10.2492 18.5538 8.50085 18.9998 6.75251 18.9998ZM2.65819 12.4346C1.80186 13.0055 1.33801 13.7369 1.33801 14.5041C1.33801 15.2623 1.81078 15.9937 2.65819 16.5557C4.87929 18.0454 8.62573 18.0454 10.8468 16.5557C11.7032 15.9848 12.167 15.2534 12.167 14.4862C12.167 13.728 11.6942 12.9966 10.8468 12.4346C8.62573 10.9539 4.87929 10.9539 2.65819 12.4346Z" fill="white"/>
<path d="M14.9322 17.3942C14.62 17.3942 14.3435 17.1801 14.2811 16.859C14.2097 16.4933 14.4416 16.1454 14.7984 16.0651C15.3604 15.9491 15.8778 15.7261 16.2792 15.4139C16.7876 15.0304 17.0641 14.5487 17.0641 14.0402C17.0641 13.5318 16.7876 13.0501 16.2881 12.6755C15.8956 12.3722 15.405 12.1581 14.8252 12.0243C14.4684 11.944 14.2365 11.5872 14.3167 11.2215C14.397 10.8647 14.7538 10.6328 15.1196 10.7131C15.8867 10.8825 16.5557 11.1858 17.0998 11.6051C17.9294 12.2295 18.4022 13.1126 18.4022 14.0402C18.4022 14.9679 17.9205 15.851 17.0909 16.4843C16.5379 16.9125 15.8421 17.2247 15.075 17.3764C15.0214 17.3942 14.9768 17.3942 14.9322 17.3942Z" fill="white"/>
</svg>
