<svg width="60" height="24" viewBox="0 0 60 24" fill="none" xmlns="http://www.w3.org/2000/svg">
<path d="M57.9801 0.04487H1.88432C0.868557 0.04487 0.0451165 0.868311 0.0451165 1.88408V22.1154C0.0451165 23.1311 0.868557 23.9546 1.88432 23.9546H57.9801C58.9959 23.9546 59.8193 23.1311 59.8193 22.1154V1.88408C59.8193 0.868311 58.9959 0.04487 57.9801 0.04487Z" fill="#F6F7F9"/>
<path d="M57.9801 0.50491H1.88432C1.12249 0.50491 0.50491 1.12249 0.50491 1.88432V22.1156C0.50491 22.8774 1.12249 23.495 1.88432 23.495H57.9801C58.742 23.495 59.3595 22.8774 59.3595 22.1156V1.88432C59.3595 1.12249 58.742 0.50491 57.9801 0.50491Z" stroke="#CED0D4"/>
</svg>
