<svg width="8" height="9" viewBox="0 0 8 9" fill="none" xmlns="http://www.w3.org/2000/svg">
<path d="M4 0C3.20888 0 2.43552 0.263508 1.77772 0.757202C1.11992 1.2509 0.607234 1.9526 0.304484 2.77359C0.00173313 3.59457 -0.0774802 4.49796 0.0768607 5.36951C0.231201 6.24106 0.612164 7.04163 1.17157 7.66998C1.73098 8.29833 2.44372 8.72625 3.21964 8.89961C3.99556 9.07297 4.79983 8.984 5.53073 8.64393C6.26164 8.30387 6.88635 7.728 7.32588 6.98913C7.7654 6.25027 8 5.3816 8 4.49297C7.99831 3.30194 7.57634 2.16024 6.82656 1.31805C6.07678 0.475867 5.06035 0.00189332 4 0V0ZM3.23059 1.6088L3.41726 1.66812V1.39197L3.4901 1.31527L3.5684 1.48504L3.71682 1.68959L3.65673 1.78267L3.41726 1.84403V1.67732L3.23059 1.84096L3.17596 1.74789L3.23059 1.6088ZM0.349649 4.39274C0.366905 3.55357 0.614647 2.74089 1.05896 2.06597C1.06731 2.06714 1.07554 2.06919 1.08354 2.07211C1.08354 2.13347 1.00888 2.14881 1.08354 2.30427C1.17915 2.50882 1.0972 2.5978 1.0972 2.5978C1.0972 2.5978 0.863193 2.78292 0.82404 2.81463C0.784887 2.84633 0.67289 3.01918 0.741181 2.96906C0.809471 2.91895 0.89233 2.87599 0.82404 2.99975C0.755749 3.1235 0.631005 3.32498 0.603689 3.40169C0.576373 3.4784 0.438882 3.66454 0.438882 3.75761C0.419317 3.8753 0.405637 3.99412 0.397907 4.11353C0.397415 4.20916 0.381049 4.30385 0.349649 4.39274ZM1.77191 6.97622L1.71637 7.20737L1.77191 7.39249C1.73356 7.42876 1.68794 7.45403 1.63897 7.46613C1.58798 7.46613 1.57068 7.50192 1.51514 7.48556C0.979763 6.92833 0.605224 6.20377 0.439792 5.40527C0.469626 5.4166 0.496733 5.4355 0.519009 5.4605C0.562763 5.50765 0.614461 5.54451 0.671069 5.56891C0.73936 5.60062 0.767586 5.64562 0.853177 5.69266C0.938768 5.73971 0.90872 5.70903 1.01798 5.84812C1.07681 5.90526 1.11979 5.98016 1.14182 6.06393C1.16787 6.13553 1.20021 6.20406 1.23834 6.26848C1.26565 6.31552 1.34851 6.34621 1.38948 6.37689C1.43477 6.41063 1.48661 6.43168 1.54063 6.43825C1.58252 6.43825 1.70635 6.57735 1.77464 6.59269C1.84293 6.60803 1.84384 6.76349 1.84384 6.76349L1.77191 6.97622ZM2.31823 1.00537C2.25371 1.0731 2.19289 1.14517 2.13613 1.22117C2.10772 1.28404 2.065 1.33733 2.01229 1.37561C1.95575 1.41995 1.90877 1.47797 1.8748 1.54539L1.72274 1.60675L1.59891 1.54539C1.59891 1.54539 1.48782 1.59243 1.50239 1.53004C1.50699 1.51266 1.51246 1.49559 1.51878 1.47891C1.85804 1.12581 2.25383 0.84817 2.68518 0.660701C2.64239 0.722066 2.59413 0.785477 2.59413 0.785477C2.59413 0.785477 2.50216 0.788545 2.32279 1.00537H2.31823ZM6.5231 6.55894C6.50854 6.6203 6.48213 6.72872 6.46847 6.79111C6.44377 6.87376 6.40123 6.94825 6.34464 7.00793C6.30366 7.03861 6.23446 7.13168 6.19349 7.14702C6.15252 7.16237 6.12429 7.03861 6.13795 6.97622C6.16204 6.8973 6.18969 6.81982 6.22081 6.74406C6.22081 6.74406 6.23446 6.65099 6.24812 6.58962C6.26178 6.52826 6.43023 6.45053 6.43023 6.45053L6.53767 6.21836C6.54542 6.2539 6.54999 6.29022 6.55133 6.32677C6.54738 6.40488 6.53795 6.48251 6.5231 6.55894ZM6.56408 5.10458C6.53676 5.1506 6.4539 5.27436 6.41202 5.33572C6.36016 5.42133 6.29899 5.49932 6.22991 5.56789C6.14705 5.64562 6.14705 5.72232 6.10608 5.78471C6.06904 5.84986 6.03676 5.91827 6.00956 5.98926C6.00956 5.98926 6.03688 6.29609 6.05053 6.36052C6.06419 6.42496 5.95402 6.59167 5.95402 6.59167L5.83018 6.73076L5.66447 6.97827L5.67812 7.20941C5.67812 7.20941 5.55338 7.31783 5.48418 7.38021C5.41498 7.4426 5.42682 7.48863 5.37127 7.55101C5.29584 7.62841 5.20934 7.69099 5.11541 7.73613C5.06078 7.75147 4.82677 7.7975 4.82677 7.7975V7.65636L4.75028 7.50192C4.71563 7.41663 4.67609 7.33396 4.63191 7.25441C4.59094 7.19305 4.59094 7.09998 4.52174 7.02225C4.47094 6.97082 4.4311 6.9072 4.40519 6.83611C4.40113 6.77291 4.40605 6.70938 4.41976 6.64792C4.41976 6.64792 4.47257 6.47712 4.5008 6.41575C4.50966 6.37933 4.51164 6.34122 4.50662 6.30388C4.5016 6.26655 4.4897 6.2308 4.47166 6.19893C4.44585 6.11426 4.43203 6.02556 4.43069 5.93608C4.43069 5.89006 4.3196 5.8113 4.27863 5.76528C4.23765 5.71926 4.25131 5.65687 4.25131 5.5955C4.23332 5.49445 4.22387 5.39172 4.22308 5.28868C4.23674 5.18026 4.09925 5.25697 4.0173 5.28868C3.93535 5.32038 3.87981 5.25697 3.87981 5.1639C3.87981 5.07083 3.72866 5.14856 3.63214 5.20992C3.52889 5.25531 3.42264 5.29156 3.31436 5.31834C3.28636 5.33307 3.2547 5.33653 3.22469 5.32815C3.19469 5.31977 3.16816 5.30006 3.14956 5.27231C3.0973 5.22207 3.04225 5.17561 2.98475 5.13322C2.9105 5.0734 2.84532 5.00053 2.79171 4.91741C2.70515 4.7961 2.63574 4.66053 2.58593 4.51547C2.57899 4.42769 2.57899 4.33938 2.58593 4.2516C2.58282 4.16879 2.58739 4.08584 2.59959 4.00409C2.61995 3.91639 2.65253 3.83286 2.69611 3.75659C2.76337 3.67418 2.84248 3.60503 2.93012 3.55203C2.97109 3.52135 3.06761 3.42828 3.06761 3.36692C3.06761 3.30555 3.12315 3.27384 3.15047 3.21248C3.17778 3.15111 3.2743 2.99668 3.39904 3.05804C3.44996 3.05145 3.50045 3.0412 3.55019 3.02736C3.62022 3.0005 3.68892 2.96943 3.75598 2.93429C3.81804 2.90994 3.88259 2.89448 3.9481 2.88827C3.99609 2.91061 4.04619 2.92673 4.09743 2.93633C4.1384 2.93633 4.27316 2.90974 4.27316 2.90974C4.29887 2.99853 4.31955 3.08905 4.33508 3.18077C4.33508 3.22782 4.37605 3.27384 4.44616 3.30453C4.51628 3.33521 4.83132 3.41294 4.96972 3.28919C5.00159 3.26055 5.10722 3.33521 5.10722 3.33521C5.24325 3.36263 5.37676 3.40405 5.50603 3.45896C5.56158 3.50601 5.65809 3.53669 5.68814 3.58374C5.73892 3.65728 5.78487 3.73487 5.82563 3.81591C5.8402 3.86193 5.90849 4.03273 5.92306 4.0941C5.94499 4.19567 5.97707 4.29414 6.01867 4.38763C6.05964 4.46536 6.29183 4.80491 6.37651 4.96037L6.62509 4.91435C6.61115 4.98012 6.59068 5.04393 6.56408 5.10458ZM7.56567 4.51752C7.55201 4.45513 7.46915 4.2383 7.46915 4.2383C7.43078 4.17908 7.38439 4.12697 7.33166 4.08387C7.27703 4.05319 7.23515 3.97546 7.13863 3.91409C7.07572 3.8592 6.99959 3.82677 6.9201 3.82102C6.83724 3.82102 6.75529 3.69727 6.65786 3.63488C6.56044 3.57249 6.54769 3.60419 6.54769 3.60419C6.59297 3.67606 6.62999 3.75407 6.65786 3.83636C6.65786 3.88238 6.7817 3.96011 6.90644 3.92943C6.94221 4.0055 6.98363 4.07803 7.03028 4.14626C7.07125 4.19228 7.01662 4.23933 6.93376 4.30069C6.89272 4.32517 6.85526 4.35655 6.82267 4.39376C6.75252 4.45095 6.67889 4.50256 6.60232 4.5482C6.56135 4.57888 6.39563 4.67195 6.31368 4.57888C6.27271 4.53388 6.28545 4.43979 6.25905 4.37433C6.23264 4.30887 5.94218 3.83329 5.80378 3.61647C5.76978 3.54902 5.72815 3.4868 5.67995 3.43135C5.63897 3.39964 5.77646 3.39964 5.77646 3.39964C5.77616 3.33759 5.77129 3.27567 5.76189 3.21452C5.75596 3.15234 5.76091 3.08946 5.77646 3.02941C5.77646 3.02941 5.63897 3.12248 5.59435 3.15316C5.54974 3.18384 5.51787 3.09384 5.46324 3.01611C5.40657 2.94459 5.36433 2.86016 5.3394 2.7686C5.32575 2.6919 5.4086 2.66019 5.4086 2.66019L5.53244 2.58348C5.61441 2.56678 5.69791 2.56162 5.78101 2.56814C5.87753 2.58348 6.02868 2.59883 6.02868 2.59883C6.02868 2.59883 6.06966 2.49041 6.01411 2.44439C5.95857 2.39836 5.83201 2.32064 5.7801 2.33598C5.7282 2.35132 5.80742 2.25825 5.87571 2.19688L5.72365 2.1662C5.72365 2.1662 5.58525 2.24393 5.54154 2.25927C5.47581 2.28108 5.41723 2.32412 5.37309 2.38302C5.31846 2.46075 5.39495 2.56814 5.34031 2.59985C5.29733 2.62454 5.25255 2.64507 5.20646 2.66121C5.14932 2.66926 5.09151 2.66926 5.03437 2.66121C4.89233 2.66121 4.98338 2.80747 5.0198 2.85861L4.90963 2.70724L4.82768 2.49041C4.82768 2.49041 4.71022 2.39734 4.65559 2.36666C4.60096 2.33598 4.43069 2.22756 4.43069 2.22756L4.44252 2.36666L4.60187 2.54769H4.61644L4.71386 2.67144L4.54541 2.68678V2.56917C4.26315 2.52212 4.40337 2.47405 4.38425 2.45871L4.2422 2.35234C4.2422 2.35234 4.07649 2.38302 4.0346 2.39939C3.99272 2.41575 3.97997 2.46075 3.89802 2.49246C3.83682 2.51211 3.78406 2.55609 3.7496 2.61621C3.69741 2.70309 3.6399 2.78579 3.57751 2.86372C3.52197 2.92611 3.41908 2.90974 3.37719 2.90974C3.29579 2.89445 3.21523 2.87396 3.1359 2.84838V2.58348C3.14919 2.52021 3.1538 2.45502 3.14956 2.39018L3.27066 2.36768L3.47189 2.32064L3.53107 2.27359L3.61666 2.14779C3.60395 2.13773 3.59315 2.1249 3.58492 2.11008C3.57668 2.09526 3.57117 2.07874 3.56871 2.06148C3.56625 2.04423 3.56689 2.0266 3.57059 2.00963C3.57429 1.99266 3.58098 1.97669 3.59026 1.96267C3.62304 1.91051 3.74232 1.9013 3.79695 1.85426C3.83974 1.82144 3.8863 1.79529 3.93535 1.77653C3.93535 1.77653 4.03187 1.68346 4.12839 1.57198C4.17663 1.54277 4.22724 1.51879 4.27954 1.50038C4.36287 1.58861 4.45446 1.66645 4.5527 1.73255C4.62098 1.70603 4.68588 1.66958 4.74573 1.62414C4.76492 1.56485 4.77419 1.50209 4.77305 1.43902C4.75939 1.39299 4.69019 1.23447 4.69019 1.23447C4.69019 1.23447 4.64921 1.3122 4.60824 1.37356C4.58072 1.41695 4.55751 1.46359 4.53904 1.51266C4.53904 1.51266 4.34601 1.49732 4.33235 1.45129C4.31869 1.40527 4.29319 1.32958 4.27954 1.28561C4.26588 1.24163 4.1557 1.2406 4.07375 1.27129C3.99181 1.30197 4.08741 1.10458 4.08741 1.10458C4.08741 1.10458 4.17027 0.987983 4.2249 0.987983C4.30587 0.963567 4.38502 0.932107 4.46164 0.893889C4.55337 0.839883 4.64902 0.794719 4.74755 0.758886C4.81675 0.758886 4.89961 0.744567 4.94059 0.744567H5.14637L5.43592 0.766045C5.43592 0.766045 5.6845 0.892867 5.60073 0.955255C5.64889 0.994295 5.69509 1.03629 5.73913 1.08105C5.77737 1.12503 5.87753 1.0473 5.9349 1.01048C6.46029 1.37908 6.89373 1.89152 7.19458 2.49975C7.49543 3.10797 7.65382 3.79206 7.6549 4.48786C7.6549 4.56661 7.64853 4.64434 7.64489 4.72207C7.61757 4.6515 7.57933 4.5574 7.56931 4.51752H7.56567Z" fill="#90949C"/>
</svg>
