<svg width="24" height="24" viewBox="0 0 24 24" fill="none" xmlns="http://www.w3.org/2000/svg">
<path d="M20.6853 4.29843H20.2053L16.1499 0.242968C15.8259 -0.0809893 15.298 -0.0809893 14.962 0.242968C14.6381 0.566925 14.6381 1.09485 14.962 1.43081L17.8296 4.29843H6.16718L9.0348 1.43081C9.35876 1.10685 9.35876 0.578923 9.0348 0.242968C8.71084 -0.0809893 8.18292 -0.0809893 7.84696 0.242968L3.8035 4.29843H3.32356C2.2437 4.29843 0 4.29843 0 7.37002C0 8.53387 0.239968 9.30177 0.743901 9.8057C1.03186 10.1057 1.37982 10.2616 1.75177 10.3456C2.09972 10.4296 2.47167 10.4416 2.83162 10.4416H21.1652C21.5371 10.4416 21.8851 10.4176 22.2211 10.3456C23.2289 10.1057 23.9968 9.38576 23.9968 7.37002C23.9968 4.29843 21.7531 4.29843 20.6853 4.29843Z" fill="#ABB5C2"/>
<path d="M20.4573 12.0015H3.44352C2.69962 12.0015 2.13569 12.6614 2.25568 13.3933L3.26354 19.5605C3.5995 21.6242 4.49938 23.9999 8.49485 23.9999H15.226C19.2694 23.9999 19.9893 21.9722 20.4213 19.7045L21.6331 13.4293C21.7771 12.6854 21.2132 12.0015 20.4573 12.0015ZM10.3306 19.7405C10.3306 20.2084 9.95866 20.5804 9.50272 20.5804C9.03478 20.5804 8.66283 20.2084 8.66283 19.7405V15.781C8.66283 15.3251 9.03478 14.9411 9.50272 14.9411C9.95866 14.9411 10.3306 15.3251 10.3306 15.781V19.7405ZM15.4659 19.7405C15.4659 20.2084 15.094 20.5804 14.626 20.5804C14.1701 20.5804 13.7861 20.2084 13.7861 19.7405V15.781C13.7861 15.3251 14.1701 14.9411 14.626 14.9411C15.094 14.9411 15.4659 15.3251 15.4659 15.781V19.7405Z" fill="#ABB5C2"/>
</svg>
