<svg width="12" height="12" viewBox="0 0 12 12" fill="none" xmlns="http://www.w3.org/2000/svg">
<path fill-rule="evenodd" clip-rule="evenodd" d="M11.1486 4.62325H8.36144C8.43452 3.70258 8.43452 2.77753 8.36144 1.85686C8.27386 1.21131 7.98802 0.608874 7.54337 0.13275C7.38928 0.0297753 7.2038 -0.0155215 7.01958 0.00471676C6.83536 0.024955 6.66419 0.109495 6.53614 0.243465C6.53614 0.243465 6.57207 1.73676 6.57207 2.07818C6.38446 2.6959 6.04082 3.25491 5.5743 3.70116C5.36907 3.89031 4.01662 4.42086 3.71587 4.62325V11.078L9.47555 11.0685C10.5452 11.0685 10.8781 9.77762 10.1886 9.65751L10.2388 9.50997C10.9244 9.4362 11.4805 8.29276 10.6473 8.05254L10.6975 7.91446C11.3481 7.84069 11.9733 6.72477 11.107 6.44861L11.1561 6.31053C12.0234 6.16299 12.3733 4.77933 11.4701 4.77933L11.1486 4.62325ZM0 5.54534H2.78714V12.0002H0V5.54534Z" fill="#4B4F56"/>
</svg>
