<svg width="26" height="26" viewBox="0 0 26 26" fill="none" xmlns="http://www.w3.org/2000/svg">
<path d="M6.00813 19.9793H6.77237V19.215H6.00813V19.9793ZM6.00813 25.2198H5.2439C5.2439 25.5092 5.4074 25.7738 5.66625 25.9033C5.9251 26.0327 6.23488 26.0049 6.46648 25.8313L6.00813 25.2198ZM13 19.9793V19.215H12.7454L12.5416 19.3677L13 19.9793ZM7.7561 6.98727C7.33402 6.98727 6.99186 7.32943 6.99186 7.75151C6.99186 8.17358 7.33402 8.51574 7.7561 8.51574V6.98727ZM18.2439 8.51574C18.666 8.51574 19.0081 8.17358 19.0081 7.75151C19.0081 7.32943 18.666 6.98727 18.2439 6.98727V8.51574ZM7.7561 12.2278C7.33402 12.2278 6.99186 12.5699 6.99186 12.992C6.99186 13.4141 7.33402 13.7562 7.7561 13.7562V12.2278ZM14.748 13.7562C15.17 13.7562 15.5122 13.4141 15.5122 12.992C15.5122 12.5699 15.17 12.2278 14.748 12.2278V13.7562ZM5.2439 19.9793V25.2198H6.77237V19.9793H5.2439ZM6.46648 25.8313L13.4583 20.5908L12.5416 19.3677L5.54978 24.6082L6.46648 25.8313ZM13 20.7435H23.4878V19.215H13V20.7435ZM23.4878 20.7435C24.876 20.7435 26 19.621 26 18.2325H24.4715C24.4715 18.7759 24.0328 19.215 23.4878 19.215V20.7435ZM26 18.2325V2.51103H24.4715V18.2325H26ZM26 2.51103C26 1.12247 24.876 0 23.4878 0V1.52847C24.0328 1.52847 24.4715 1.9676 24.4715 2.51103H26ZM23.4878 0H2.5122V1.52847H23.4878V0ZM2.5122 0C1.12399 0 0 1.12247 0 2.51103H1.52847C1.52847 1.9676 1.96716 1.52847 2.5122 1.52847V0ZM0 2.51103V18.2325H1.52847V2.51103H0ZM0 18.2325C0 19.621 1.12399 20.7435 2.5122 20.7435V19.215C1.96716 19.215 1.52847 18.7759 1.52847 18.2325H0ZM2.5122 20.7435H6.00813V19.215H2.5122V20.7435ZM7.7561 8.51574H18.2439V6.98727H7.7561V8.51574ZM7.7561 13.7562H14.748V12.2278H7.7561V13.7562Z" fill="#8B8B8B"/>
</svg>
