<svg width="22" height="22" viewBox="0 0 22 22" fill="none" xmlns="http://www.w3.org/2000/svg">
<path d="M21.2326 10.2326H19.1451C18.7767 6.33395 15.666 3.21302 11.7674 2.85488V0.767442C11.7674 0.347907 11.4195 0 11 0C10.5805 0 10.2326 0.347907 10.2326 0.767442V2.85488C6.33395 3.22326 3.21302 6.33395 2.85488 10.2326H0.767442C0.347907 10.2326 0 10.5805 0 11C0 11.4195 0.347907 11.7674 0.767442 11.7674H2.85488C3.22326 15.666 6.33395 18.787 10.2326 19.1451V21.2326C10.2326 21.6521 10.5805 22 11 22C11.4195 22 11.7674 21.6521 11.7674 21.2326V19.1451C15.666 18.7767 18.787 15.666 19.1451 11.7674H21.2326C21.6521 11.7674 22 11.4195 22 11C22 10.5805 21.6521 10.2326 21.2326 10.2326ZM11 14.1926C9.24 14.1926 7.80744 12.76 7.80744 11C7.80744 9.24 9.24 7.80744 11 7.80744C12.76 7.80744 14.1926 9.24 14.1926 11C14.1926 12.76 12.76 14.1926 11 14.1926Z" fill="#292D32"/>
</svg>
