<svg width="22" height="22" viewBox="0 0 22 22" fill="none" xmlns="http://www.w3.org/2000/svg">
<path d="M18.2276 17.8302L16.04 13.4668L13.8537 17.8302" stroke="#1B3F67" stroke-width="1.5" stroke-linecap="round" stroke-linejoin="round"/>
<path d="M14.2524 17.0534H17.8496" stroke="#1B3F67" stroke-width="1.5" stroke-linecap="round" stroke-linejoin="round"/>
<path d="M16.04 21.2326C15.0133 21.2326 14.0096 20.9281 13.1559 20.3577C12.3023 19.7873 11.6369 18.9766 11.244 18.028C10.8511 17.0795 10.7483 16.0357 10.9486 15.0287C11.1489 14.0218 11.6433 13.0968 12.3693 12.3708C13.0953 11.6448 14.0203 11.1504 15.0272 10.9501C16.0342 10.7498 17.078 10.8526 18.0265 11.2455C18.9751 11.6384 19.7858 12.3038 20.3562 13.1574C20.9266 14.0111 21.2311 15.0148 21.2311 16.0415C21.2311 17.4182 20.6841 18.7386 19.7106 19.7121C18.7371 20.6856 17.4167 21.2326 16.04 21.2326V21.2326Z" stroke="#1B3F67" stroke-width="1.5" stroke-linecap="round" stroke-linejoin="round"/>
<path d="M3.8808 0.796233H7.88591C10.0016 0.796233 11.0241 1.81745 10.9718 3.88212V7.88724C11.0504 8.30965 11.0249 8.74483 10.8976 9.1552C10.7704 9.56558 10.5451 9.93879 10.2413 10.2426C9.93746 10.5464 9.56425 10.7717 9.15388 10.899C8.74351 11.0262 8.30832 11.0517 7.88591 10.9731H3.8808C1.81613 11.015 0.794907 9.99244 0.794907 7.87678V3.87166C0.734868 3.4529 0.773389 3.02591 0.907405 2.62466C1.04142 2.22341 1.26723 1.85897 1.56687 1.56035C1.86652 1.26172 2.23172 1.03715 2.63342 0.904495C3.03512 0.771843 3.46224 0.734772 3.8808 0.796233V0.796233Z" stroke="#1B3F67" stroke-width="1.5" stroke-linecap="round" stroke-linejoin="round"/>
<path d="M7.9578 4.73074H3.80885" stroke="#1B3F67" stroke-width="1.5" stroke-linecap="round" stroke-linejoin="round"/>
<path d="M5.87358 4.03529V4.72831" stroke="#1B3F67" stroke-width="1.5" stroke-linecap="round" stroke-linejoin="round"/>
<path d="M6.91444 4.72025C6.92951 5.5626 6.60997 6.37655 6.02587 6.98369C5.44178 7.59083 4.64078 7.9416 3.79848 7.95912" stroke="#1B3F67" stroke-width="1.5" stroke-linecap="round" stroke-linejoin="round"/>
<path d="M7.95793 7.95917C7.58377 7.9484 7.21744 7.84933 6.88885 7.67004C6.56026 7.49075 6.27871 7.23631 6.06717 6.92749" stroke="#1B3F67" stroke-width="1.5" stroke-linecap="round" stroke-linejoin="round"/>
<path d="M0.79487 14.0798C0.794182 15.0193 0.978716 15.9497 1.33792 16.8177C1.69712 17.6858 2.22394 18.4746 2.88824 19.1389C3.55255 19.8032 4.3413 20.33 5.20939 20.6892C6.07748 21.0484 7.00786 21.2329 7.94733 21.2323L6.87511 19.4409" stroke="#1B3F67" stroke-width="1.5" stroke-linecap="round" stroke-linejoin="round"/>
<path d="M21.2311 7.94883C21.2318 7.00936 21.0473 6.07897 20.6881 5.21089C20.3289 4.3428 19.8021 3.55405 19.1378 2.88974C18.4735 2.22544 17.6847 1.69862 16.8166 1.33942C15.9485 0.980215 15.0181 0.795681 14.0787 0.796368L15.1522 2.58514" stroke="#1B3F67" stroke-width="1.5" stroke-linecap="round" stroke-linejoin="round"/>
</svg>
