<svg width="19" height="19" viewBox="0 0 19 19" fill="none" xmlns="http://www.w3.org/2000/svg">
<path d="M0.75 17.7861H18.25" stroke="white" stroke-width="1.5" stroke-miterlimit="10" stroke-linecap="round" stroke-linejoin="round"/>
<path d="M1.58125 17.7862L1.625 7.25996C1.625 6.72621 1.87875 6.21876 2.29875 5.88626L8.42375 1.1175C9.05375 0.6275 9.9375 0.6275 10.5763 1.1175L16.7013 5.8775C17.13 6.21 17.375 6.71746 17.375 7.25996V17.7862" stroke="white" stroke-width="1.5" stroke-miterlimit="10" stroke-linejoin="round"/>
<path d="M10.375 13.4111H8.625C7.89875 13.4111 7.3125 13.9974 7.3125 14.7236V17.7861H11.6875V14.7236C11.6875 13.9974 11.1012 13.4111 10.375 13.4111Z" stroke="white" stroke-width="1.5" stroke-miterlimit="10" stroke-linejoin="round"/>
<path d="M7.3125 10.5674H5.5625C5.08125 10.5674 4.6875 10.1736 4.6875 9.69238V8.37988C4.6875 7.89863 5.08125 7.50488 5.5625 7.50488H7.3125C7.79375 7.50488 8.1875 7.89863 8.1875 8.37988V9.69238C8.1875 10.1736 7.79375 10.5674 7.3125 10.5674Z" stroke="white" stroke-width="1.5" stroke-miterlimit="10" stroke-linejoin="round"/>
<path d="M13.4375 10.5674H11.6875C11.2063 10.5674 10.8125 10.1736 10.8125 9.69238V8.37988C10.8125 7.89863 11.2063 7.50488 11.6875 7.50488H13.4375C13.9188 7.50488 14.3125 7.89863 14.3125 8.37988V9.69238C14.3125 10.1736 13.9188 10.5674 13.4375 10.5674Z" stroke="white" stroke-width="1.5" stroke-miterlimit="10" stroke-linejoin="round"/>
<path d="M15.625 4.66113L15.5988 2.03613H11.7487" stroke="white" stroke-width="1.5" stroke-miterlimit="10" stroke-linecap="round" stroke-linejoin="round"/>
</svg>
