<svg width="21" height="22" viewBox="0 0 21 22" fill="none" xmlns="http://www.w3.org/2000/svg">
<path d="M20.496 10.92C20.496 16.6914 16.0022 21.336 10.5 21.336C4.99781 21.336 0.504 16.6914 0.504 10.92C0.504 5.14859 4.99781 0.504 10.5 0.504C16.0022 0.504 20.496 5.14859 20.496 10.92Z" fill="#0F6EFF" stroke="white"/>
<path d="M9.00897 14.8297C8.79897 14.8297 8.59947 14.7424 8.45247 14.5895L5.48097 11.4991C5.17647 11.1825 5.17647 10.6583 5.48097 10.3416C5.78547 10.0249 6.28947 10.0249 6.59397 10.3416L9.00897 12.8532L14.406 7.24035C14.7105 6.92367 15.2145 6.92367 15.519 7.24035C15.8235 7.55703 15.8235 8.08119 15.519 8.39787L9.56547 14.5895C9.41847 14.7424 9.21897 14.8297 9.00897 14.8297Z" fill="white"/>
</svg>
