<svg width="19" height="19" viewBox="0 0 19 19" fill="none" xmlns="http://www.w3.org/2000/svg">
<path d="M3.48186 4.53128C3.31395 4.53128 3.13721 4.46058 3.01349 4.33686C2.75721 4.08058 2.75721 3.6564 3.01349 3.40012L6.22139 0.192209C6.47767 -0.0640698 6.90186 -0.0640698 7.15814 0.192209C7.41442 0.448488 7.41442 0.872674 7.15814 1.12895L3.95023 4.33686C3.81767 4.46058 3.64976 4.53128 3.48186 4.53128Z" fill="white"/>
<path d="M15.5181 4.53128C15.3502 4.53128 15.1823 4.46942 15.0498 4.33686L11.8419 1.12895C11.5856 0.872674 11.5856 0.448488 11.8419 0.192209C12.0981 -0.0640698 12.5223 -0.0640698 12.7786 0.192209L15.9865 3.40012C16.2428 3.6564 16.2428 4.08058 15.9865 4.33686C15.8628 4.46058 15.686 4.53128 15.5181 4.53128Z" fill="white"/>
<path d="M16.7553 8.26072C16.6935 8.26072 16.6316 8.26072 16.5698 8.26072H16.3665H2.43023C1.81163 8.26956 1.10465 8.26956 0.592093 7.757C0.185581 7.35932 0 6.74072 0 5.83049C0 3.40025 1.77628 3.40025 2.62465 3.40025H16.3753C17.2237 3.40025 19 3.40025 19 5.83049C19 6.74956 18.8144 7.35932 18.4079 7.757C17.9484 8.21653 17.3298 8.26072 16.7553 8.26072ZM2.62465 6.93514H16.5786C16.9763 6.94398 17.3474 6.94398 17.4712 6.82025C17.533 6.75839 17.6656 6.5463 17.6656 5.83049C17.6656 4.83188 17.4181 4.72584 16.3665 4.72584H2.62465C1.57302 4.72584 1.32558 4.83188 1.32558 5.83049C1.32558 6.5463 1.46698 6.75839 1.52 6.82025C1.64372 6.93514 2.02372 6.93514 2.41256 6.93514H2.62465Z" fill="white"/>
<path d="M7.52047 15.0655C7.15814 15.0655 6.85768 14.765 6.85768 14.4027V11.2655C6.85768 10.9031 7.15814 10.6027 7.52047 10.6027C7.88279 10.6027 8.18326 10.9031 8.18326 11.2655V14.4027C8.18326 14.7738 7.88279 15.0655 7.52047 15.0655Z" fill="white"/>
<path d="M11.5856 15.0655C11.2233 15.0655 10.9228 14.765 10.9228 14.4027V11.2655C10.9228 10.9031 11.2233 10.6027 11.5856 10.6027C11.9479 10.6027 12.2484 10.9031 12.2484 11.2655V14.4027C12.2484 14.7738 11.9479 15.0655 11.5856 15.0655Z" fill="white"/>
<path d="M12.054 18.9982H6.72511C3.56139 18.9982 2.85442 17.1159 2.58046 15.481L1.33442 7.83678C1.27256 7.47446 1.52 7.13865 1.88232 7.07678C2.24465 7.01492 2.58046 7.26237 2.64232 7.62469L3.88837 15.26C4.14465 16.8242 4.67488 17.6726 6.72511 17.6726H12.054C14.3251 17.6726 14.5814 16.8773 14.873 15.3396L16.3577 7.60702C16.4284 7.24469 16.773 7.00609 17.1353 7.08562C17.4977 7.15632 17.7274 7.50097 17.6567 7.8633L16.1721 15.5959C15.8274 17.3898 15.253 18.9982 12.054 18.9982Z" fill="white"/>
</svg>
