<svg width="19" height="16" viewBox="0 0 19 16" fill="none" xmlns="http://www.w3.org/2000/svg">
<path d="M14.8144 11.8C14.6729 11.8 14.5402 11.7558 14.4164 11.6674C14.1245 11.4463 14.0626 11.0306 14.2837 10.7387C15.6723 8.89022 15.6723 6.30765 14.2837 4.45917C14.0626 4.1673 14.1245 3.75161 14.4164 3.5305C14.7083 3.30939 15.1239 3.3713 15.3451 3.66317C17.0786 5.9804 17.0786 9.21746 15.3451 11.5347C15.2124 11.7116 15.0178 11.8 14.8144 11.8Z" fill="white"/>
<path d="M16.4329 14.0111C16.2914 14.0111 16.1587 13.9669 16.0349 13.8785C15.743 13.6573 15.6811 13.2417 15.9022 12.9498C18.2637 9.80118 18.2637 5.39667 15.9022 2.24806C15.6811 1.9562 15.743 1.54051 16.0349 1.3194C16.3268 1.09829 16.7425 1.1602 16.9636 1.45207C19.6788 5.06943 19.6788 10.1284 16.9636 13.7458C16.8398 13.9227 16.6363 14.0111 16.4329 14.0111Z" fill="white"/>
<path d="M11.2943 0.328588C10.3037 -0.219765 9.03899 -0.0782547 7.7477 0.726586L5.16513 2.34511C4.98825 2.45125 4.78482 2.51316 4.5814 2.51316H3.75887H3.31665C1.17631 2.51316 0 3.68946 0 5.82981V9.36757C0 11.5079 1.17631 12.6842 3.31665 12.6842H3.75887H4.5814C4.78482 12.6842 4.98825 12.7461 5.16513 12.8523L7.7477 14.4708C8.52601 14.9572 9.28663 15.196 9.99418 15.196C10.4541 15.196 10.8963 15.0899 11.2943 14.8688C12.276 14.3204 12.8244 13.1795 12.8244 11.6583V3.53911C12.8244 2.01787 12.276 0.876941 11.2943 0.328588Z" fill="white"/>
</svg>
