<svg width="18" height="19" viewBox="0 0 18 19" fill="none" xmlns="http://www.w3.org/2000/svg">
<path d="M16.5 4.23242C13.5863 3.94367 10.655 3.79492 7.7325 3.79492C6 3.79492 4.2675 3.88242 2.535 4.05742L0.75 4.23242" stroke="#FC3F3F" stroke-width="1.5" stroke-linecap="round" stroke-linejoin="round"/>
<path d="M5.5625 3.34875L5.755 2.2025C5.895 1.37125 6 0.75 7.47875 0.75H9.77125C11.25 0.75 11.3637 1.40625 11.495 2.21125L11.6875 3.34875" stroke="#FC3F3F" stroke-width="1.5" stroke-linecap="round" stroke-linejoin="round"/>
<path d="M14.6187 6.99756L14.05 15.8088C13.9537 17.1826 13.875 18.2501 11.4337 18.2501H5.81622C3.37498 18.2501 3.29623 17.1826 3.19998 15.8088L2.63123 6.99756" stroke="#FC3F3F" stroke-width="1.5" stroke-linecap="round" stroke-linejoin="round"/>
<path d="M7.1637 13.4375H10.0774" stroke="#FC3F3F" stroke-width="1.5" stroke-linecap="round" stroke-linejoin="round"/>
<path d="M6.4375 9.9375H10.8125" stroke="#FC3F3F" stroke-width="1.5" stroke-linecap="round" stroke-linejoin="round"/>
</svg>
