<svg width="26" height="26" viewBox="0 0 26 26" fill="none" xmlns="http://www.w3.org/2000/svg">
<path d="M21.0162 8.63538V17.3806M16.7972 13.008H25.2353M14.2657 6.0084C14.2657 8.90467 11.9992 11.2521 9.20284 11.2521C6.40644 11.2521 4.13996 8.90467 4.13996 6.0084C4.13996 3.11213 6.40644 0.764706 9.20284 0.764706C11.9992 0.764706 14.2657 3.11213 14.2657 6.0084ZM17.641 25.2353L0.764706 25.2353C0.764706 23.9934 0.764706 22.8119 0.764706 21.742C0.764706 18.8441 3.03143 16.4958 5.82758 16.4958L12.5781 16.4958C15.3742 16.4958 17.641 18.8441 17.641 21.742C17.641 22.8119 17.641 23.9934 17.641 25.2353Z" stroke="#8B8B8B" stroke-width="1.5" stroke-linecap="round" stroke-linejoin="round"/>
</svg>
