<svg width="22" height="22" viewBox="0 0 22 22" fill="none" xmlns="http://www.w3.org/2000/svg">
<path fill-rule="evenodd" clip-rule="evenodd" d="M17.6 2.93333H19.8C21.015 2.93333 22 3.9183 22 5.13333V19.8C22 21.015 21.015 22 19.8 22H2.2C0.984974 22 0 21.015 0 19.8V5.13333C0 3.9183 0.984973 2.93333 2.2 2.93333H4.4V0H5.86666V2.93333H16.1333V0H17.6V2.93333ZM8.8 11.7333H4.4V10.2667H8.8V11.7333ZM17.6 10.2667H13.2V11.7333H17.6V10.2667ZM8.8 16.1333H4.4V14.6667H8.8V16.1333ZM13.2 16.1333H17.6V14.6667H13.2V16.1333Z" fill="#ABB5C2"/>
</svg>
