<svg width="19" height="24" viewBox="0 0 19 24" fill="none" xmlns="http://www.w3.org/2000/svg">
<path d="M13.3526 23.6512C13.2816 23.6512 13.1988 23.6394 13.1279 23.6157C10.7507 22.9416 8.25519 22.9416 5.87798 23.6157C5.44039 23.734 4.97914 23.4856 4.86087 23.048C4.73077 22.6104 4.99096 22.1492 5.42856 22.0309C8.10144 21.274 10.9163 21.274 13.5891 22.0309C14.0267 22.161 14.2869 22.6104 14.1568 23.048C14.0386 23.4146 13.7074 23.6512 13.3526 23.6512Z" fill="white"/>
<path d="M18.0242 5.15367C16.7942 2.67001 14.417 0.836837 11.6613 0.233664C8.77558 -0.40499 5.81885 0.280972 3.5599 2.10232C1.28913 3.91184 0 6.6202 0 9.5178C0 12.581 1.83317 15.7861 4.60067 17.6429V18.6245C4.58885 18.9557 4.57702 19.4642 4.97914 19.8782C5.39308 20.304 6.00808 20.3513 6.49298 20.3513H12.5602C13.1988 20.3513 13.6838 20.1739 14.0149 19.8427C14.4643 19.3815 14.4525 18.7901 14.4407 18.4708V17.6429C18.107 15.1711 20.4133 9.9554 18.0242 5.15367ZM11.5313 11.3746L10.2658 13.5744C10.1002 13.8583 9.80452 14.0239 9.49702 14.0239C9.34327 14.0239 9.18952 13.9884 9.05943 13.9056C8.63366 13.6572 8.49173 13.1132 8.72827 12.6992L9.73356 10.9489H8.7401C8.14875 10.9489 7.66385 10.6887 7.40365 10.2511C7.14346 9.80165 7.16712 9.25761 7.46279 8.73722L8.72827 6.53742C8.97664 6.11165 9.52067 5.96972 9.93462 6.20626C10.3604 6.45463 10.5023 6.99867 10.2658 7.41261L9.26048 9.16299H10.2539C10.8453 9.16299 11.3302 9.42318 11.5904 9.86078C11.8506 10.3102 11.8269 10.8661 11.5313 11.3746Z" fill="white"/>
</svg>
